<svg width="16" height="16" viewBox="0 0 16 16" fill="none" xmlns="http://www.w3.org/2000/svg">
<path d="M12.6666 2.6665H3.33331C2.80288 2.6665 2.29417 2.87722 1.9191 3.25229C1.54403 3.62736 1.33331 4.13607 1.33331 4.6665V11.3332C1.33331 11.8636 1.54403 12.3723 1.9191 12.7474C2.29417 13.1225 2.80288 13.3332 3.33331 13.3332H12.6666C13.1971 13.3332 13.7058 13.1225 14.0809 12.7474C14.4559 12.3723 14.6666 11.8636 14.6666 11.3332V4.6665C14.6666 4.13607 14.4559 3.62736 14.0809 3.25229C13.7058 2.87722 13.1971 2.6665 12.6666 2.6665ZM3.33331 3.99984H12.6666C12.8435 3.99984 13.013 4.07008 13.1381 4.1951C13.2631 4.32012 13.3333 4.48969 13.3333 4.6665L7.99998 7.91984L2.66665 4.6665C2.66665 4.48969 2.73688 4.32012 2.86191 4.1951C2.98693 4.07008 3.1565 3.99984 3.33331 3.99984ZM13.3333 11.3332C13.3333 11.51 13.2631 11.6796 13.1381 11.8046C13.013 11.9296 12.8435 11.9998 12.6666 11.9998H3.33331C3.1565 11.9998 2.98693 11.9296 2.86191 11.8046C2.73688 11.6796 2.66665 11.51 2.66665 11.3332V6.1865L7.65331 9.23317C7.75466 9.29168 7.86962 9.32249 7.98665 9.32249C8.10367 9.32249 8.21863 9.29168 8.31998 9.23317L13.3333 6.1865V11.3332Z" fill="white"/>
</svg>
