<svg width="16" height="16" viewBox="0 0 16 16" fill="none" xmlns="http://www.w3.org/2000/svg">
<path d="M11.044 14.6662H11.0627C11.4147 14.6662 11.7473 14.5275 11.9993 14.2755L13.8073 12.4675C13.8693 12.4056 13.9185 12.3322 13.952 12.2513C13.9855 12.1704 14.0028 12.0837 14.0028 11.9962C14.0028 11.9086 13.9855 11.8219 13.952 11.741C13.9185 11.6602 13.8693 11.5867 13.8073 11.5248L11.1407 8.85816C11.0788 8.7962 11.0053 8.74704 10.9245 8.7135C10.8436 8.67996 10.7569 8.6627 10.6693 8.6627C10.5818 8.6627 10.4951 8.67996 10.4142 8.7135C10.3333 8.74704 10.2599 8.7962 10.198 8.85816L9.13534 9.92083C8.64267 9.77416 7.72334 9.44083 7.14067 8.85816C6.558 8.2755 6.22467 7.35616 6.078 6.8635L7.14067 5.80083C7.20263 5.73897 7.25179 5.6655 7.28533 5.58462C7.31887 5.50375 7.33614 5.41705 7.33614 5.3295C7.33614 5.24194 7.31887 5.15524 7.28533 5.07437C7.25179 4.99349 7.20263 4.92002 7.14067 4.85816L4.474 2.1915C4.34655 2.0712 4.17793 2.00419 4.00267 2.00419C3.82741 2.00419 3.65879 2.0712 3.53134 2.1915L1.724 3.9995C1.47067 4.25283 1.328 4.60083 1.33334 4.95616C1.34867 5.9055 1.6 9.20283 4.19867 11.8015C6.79734 14.4002 10.0947 14.6508 11.044 14.6662ZM4.00334 3.6055L5.72733 5.3295L4.86534 6.1915C4.78689 6.26972 4.72927 6.36633 4.69771 6.47253C4.66616 6.57872 4.66167 6.69113 4.68467 6.7995C4.70067 6.87616 5.092 8.69416 6.19867 9.80083C7.30534 10.9075 9.12334 11.2988 9.2 11.3148C9.30837 11.3379 9.4208 11.3335 9.52702 11.302C9.63324 11.2704 9.72984 11.2127 9.808 11.1342L10.67 10.2722L12.394 11.9962L11.0567 13.3328C10.2247 13.3188 7.378 13.0955 5.14134 10.8582C2.89734 8.61416 2.68 5.7575 2.66667 4.94216L4.00334 3.6055ZM13.3327 7.33283H14.666C14.666 3.91283 12.084 1.3335 8.65934 1.3335V2.66683C11.3673 2.66683 13.3327 4.62883 13.3327 7.33283Z" fill="white"/>
<path d="M8.666 5.33333C10.068 5.33333 10.666 5.93133 10.666 7.33333H11.9993C11.9993 5.18333 10.816 4 8.666 4V5.33333Z" fill="white"/>
</svg>
